<?xml version="1.0" standalone="no"?>
<!DOCTYPE svg PUBLIC "-//W3C//DTD SVG 20010904//EN"
 "http://www.w3.org/TR/2001/REC-SVG-20010904/DTD/svg10.dtd">
<svg version="1.0" xmlns="http://www.w3.org/2000/svg"
 width="424.000000pt" height="460.000000pt" viewBox="0 0 424.000000 460.000000"
 preserveAspectRatio="xMidYMid meet">

<g transform="translate(0.000000,460.000000) scale(0.100000,-0.100000)"
fill="#000000" stroke="none">
<path d="M1113 3912 l-913 -527 0 -1065 0 -1065 73 -41 c39 -22 130 -74 202
-116 72 -41 174 -101 228 -132 99 -57 206 -119 377 -218 52 -30 283 -164 512
-297 229 -132 424 -244 432 -247 10 -4 362 194 931 522 l915 529 0 1065 0
1065 -913 528 c-503 290 -918 527 -923 527 -5 0 -420 -238 -921 -528z m1286
-366 c199 -294 361 -537 361 -540 0 -3 -326 -6 -725 -6 -399 0 -725 3 -725 6
0 7 720 1074 725 1074 2 0 166 -240 364 -534z m-843 267 c-40 -60 -171 -254
-291 -433 -120 -179 -221 -328 -224 -332 -5 -6 -353 187 -449 248 -27 18 -57
-2 403 264 239 138 338 196 514 299 58 34 108 61 113 61 4 0 -26 -48 -66 -107z
m1024 35 c58 -34 141 -82 185 -108 44 -26 184 -107 310 -180 459 -266 430
-246 403 -264 -96 -61 -444 -254 -449 -248 -3 4 -104 153 -224 332 -120 179
-252 374 -292 434 -45 66 -67 106 -56 102 10 -4 65 -35 123 -68z m-1901 -884
c119 -69 219 -129 224 -133 9 -9 -444 -951 -458 -951 -3 0 -5 272 -5 605 0
449 3 605 12 605 6 0 108 -57 227 -126z m2951 -479 c0 -333 -2 -605 -5 -605
-12 0 -468 941 -459 949 14 15 440 261 452 261 9 0 12 -128 12 -605z m-881
208 c-78 -139 -628 -1094 -689 -1196 -13 -21 -26 -35 -31 -30 -4 4 -39 62 -77
128 -38 66 -113 197 -167 290 -248 430 -293 508 -360 625 -39 69 -86 151 -104
183 l-32 57 746 0 746 0 -32 -57z m-1562 -258 c44 -77 106 -185 138 -240 32
-55 108 -188 170 -295 61 -107 147 -256 190 -330 43 -74 89 -154 103 -177 l24
-43 -44 0 c-83 1 -1239 87 -1245 93 -6 6 117 265 427 901 117 240 132 267 144
250 7 -10 49 -82 93 -159z m2005 -240 c107 -220 232 -478 278 -572 46 -95 80
-176 77 -179 -6 -7 -1161 -93 -1245 -94 l-44 0 24 43 c14 23 60 103 103 177
43 74 129 223 190 330 62 107 136 236 165 285 28 50 95 166 148 258 52 92 99
164 103 160 4 -4 95 -188 201 -408z m-1809 -1064 c284 -21 519 -40 522 -43 3
-3 4 -124 3 -270 l-3 -265 -90 52 c-49 29 -279 161 -510 295 -437 253 -466
270 -450 270 6 0 243 -18 528 -39z m1822 26 c-11 -8 -209 -123 -440 -257 -231
-134 -460 -266 -510 -295 l-90 -52 -3 265 c-1 146 0 267 3 270 4 5 922 77
1025 81 32 1 33 0 15 -12z"/>
</g>
</svg>
